<?xml version="1.0" standalone="no"?>
<!DOCTYPE svg PUBLIC "-//W3C//DTD SVG 20010904//EN"
 "http://www.w3.org/TR/2001/REC-SVG-20010904/DTD/svg10.dtd">
<svg version="1.0" xmlns="http://www.w3.org/2000/svg"
 width="180.000000pt" height="180.000000pt" viewBox="0 0 180.000000 180.000000"
 preserveAspectRatio="xMidYMid meet">
<metadata>
Created by potrace 1.14, written by Peter Selinger 2001-2017
</metadata>
<g transform="translate(0.000000,180.000000) scale(0.100000,-0.100000)"
fill="#000000" stroke="none">
<path d="M190 1310 l0 -361 108 3 107 3 3 138 3 137 30 0 c64 0 86 -23 150
-155 l60 -125 110 0 111 0 -6 24 c-13 52 -108 237 -137 265 l-30 30 39 36 c52
47 65 81 60 159 -5 80 -37 133 -105 173 l-48 28 -227 3 -228 3 0 -361z m498
297 c24 -15 51 -45 63 -69 27 -53 29 -136 5 -173 -15 -23 -78 -75 -109 -89 -9
-4 -8 -8 1 -12 46 -21 89 -77 134 -171 26 -56 48 -105 48 -108 0 -3 -37 -5
-83 -5 l-83 0 -32 78 c-64 154 -111 202 -199 202 l-53 0 0 -140 0 -140 -80 0
-80 0 0 331 0 330 213 -3 214 -3 41 -28z"/>
<path d="M380 1445 l0 -115 43 1 c135 1 187 33 187 113 0 80 -53 116 -172 116
l-58 0 0 -115z m179 61 c15 -14 21 -31 21 -62 0 -55 -22 -71 -108 -80 l-62 -7
0 88 0 87 64 -4 c45 -3 71 -10 85 -22z"/>
<path d="M930 1310 l0 -360 268 2 267 3 3 73 4 72 -161 0 -161 0 0 75 0 75
145 0 145 0 0 75 0 75 -145 0 -145 0 0 63 0 62 152 0 153 0 3 73 3 72 -266 0
-265 0 0 -360z m500 285 l0 -45 -155 0 -155 0 0 -90 0 -90 145 0 145 0 0 -45
0 -45 -145 0 -145 0 0 -105 0 -105 161 0 160 0 -3 -42 -3 -43 -237 -3 -238 -2
0 330 0 330 235 0 235 0 0 -45z"/>
<path d="M180 673 c0 -210 11 -306 39 -361 28 -54 88 -107 156 -139 56 -26 69
-28 185 -28 92 0 133 4 155 15 26 13 43 45 122 225 l93 210 0 133 0 132 -104
0 -104 0 -4 -207 c-3 -184 -5 -213 -23 -248 -55 -109 -212 -116 -268 -11 -20
38 -22 57 -25 254 l-3 212 -110 0 -109 0 0 -187z"/>
<path d="M938 505 l-156 -356 111 3 111 3 26 65 26 65 155 3 154 2 26 -67 26
-68 111 -3 111 -3 -14 33 c-7 18 -77 177 -154 353 l-139 320 -120 3 -119 3
-155 -356z m369 -82 c-3 -2 -47 -2 -100 -1 l-95 3 42 105 c23 58 46 114 50
125 6 16 18 -7 57 -104 28 -68 48 -125 46 -128z"/>
</g>
</svg>
